<svg width="32" height="32" viewBox="0 0 32 32" fill="none" xmlns="http://www.w3.org/2000/svg">
<path d="M26.0668 26.0658H18.253C11.4614 26.0658 5.93555 20.54 5.93555 13.7484V5.93457H13.7494C20.541 5.93457 26.0668 11.4604 26.0668 18.252V26.0658ZM7.40515 7.40419V13.7471C7.40515 19.7282 12.2719 24.5949 18.253 24.5949H24.5959V18.252C24.5959 12.2709 19.7292 7.40419 13.7481 7.40419H7.40515Z" fill="#1B4642"/>
<path d="M32.0004 20.1313H24.1866C17.395 20.1313 11.8691 14.6054 11.8691 7.81384V0H19.683C26.4746 0 32.0004 5.52587 32.0004 12.3174V20.1313ZM13.3387 1.46962V7.81253C13.3387 13.7936 18.2055 18.6603 24.1866 18.6603H30.5295V12.3174C30.5295 6.33633 25.6627 1.46962 19.6816 1.46962H13.3387Z" fill="#1B4642"/>
<path d="M20.1312 32.0004H12.3174C5.52582 32.0004 0 26.4745 0 19.683V11.8691H7.81379C14.6053 11.8691 20.1312 17.395 20.1312 24.1866V32.0004ZM1.46961 13.3388V19.6817C1.46961 25.6628 6.33628 30.5295 12.3174 30.5295H18.6603V24.1866C18.6603 18.2055 13.7936 13.3388 7.81251 13.3388H1.46961Z" fill="#1B4642"/>
</svg>
