<svg width="354" height="80" viewBox="0 0 354 80" fill="none" xmlns="http://www.w3.org/2000/svg">
<path d="M105.953 66.4982V17.6171C105.953 15.3368 107.808 13.4766 110.094 13.4766H136.552V15.1668C136.552 17.9921 134.252 20.2924 131.426 20.2924H113.149V37.2545H130.606V44.0754H113.149V62.2677C113.149 64.598 111.254 66.4982 108.918 66.4982H105.953Z" fill="#1B4642"/>
<path d="M154.004 67.4836C148.718 67.4836 144.153 65.5334 140.427 61.6829C136.702 57.8324 134.816 53.0768 134.816 47.5411C134.816 42.0054 136.707 37.2498 140.427 33.3993C144.153 29.5489 148.718 27.5986 154.004 27.5986C159.595 27.5986 164.06 29.6339 167.28 33.6394L168.186 34.7695V32.7243C168.186 30.439 170.046 28.5787 172.331 28.5787H174.931V62.373C174.931 64.6483 173.081 66.5035 170.801 66.5035H168.186V60.3127L167.28 61.4429C164.06 65.4484 159.595 67.4836 154.004 67.4836ZM154.834 34.1094C151.098 34.1094 147.923 35.4096 145.383 37.9699C142.842 40.5352 141.557 43.7507 141.557 47.5361C141.557 51.3216 142.842 54.537 145.383 57.1023C147.918 59.6676 151.098 60.9628 154.834 60.9628C158.619 60.9628 161.825 59.6626 164.36 57.1023C166.9 54.542 168.186 51.3216 168.186 47.5361C168.186 43.7557 166.9 40.5352 164.36 37.9699C161.82 35.4096 158.614 34.1094 154.834 34.1094Z" fill="#1B4642"/>
<path d="M181.062 66.4984V32.7142C181.062 30.4289 182.918 28.5737 185.203 28.5737H187.803V34.3844L188.734 33.0092C191.029 29.6138 194.649 27.8936 199.495 27.8936H199.58V34.9445L199.49 34.9394C199.25 34.9294 199.015 34.9244 198.78 34.9244C195.894 34.9244 193.364 35.7895 191.244 37.4898C188.959 39.325 187.803 42.3254 187.803 46.4059V62.3129C187.803 64.6232 185.928 66.4984 183.618 66.4984H181.062Z" fill="#1B4642"/>
<path d="M252.277 66.4982C249.996 66.4982 248.136 64.643 248.136 62.3577V25.428L230.984 53.9666L230.029 53.9316L212.827 25.3881V62.3177C212.827 64.623 210.951 66.4982 208.646 66.4982H205.631V17.6321C205.631 15.3418 207.496 13.4766 209.786 13.4766H213.692L230.549 41.4501L246.656 14.5067C247.036 13.8716 247.731 13.4766 248.471 13.4766H251.092C253.387 13.4766 255.252 15.3418 255.252 17.6371V66.4982H252.277Z" fill="#1B4642"/>
<path d="M279.609 67.4836C274.324 67.4836 269.758 65.5334 266.033 61.6829C262.307 57.8324 260.422 53.0768 260.422 47.5411C260.422 42.0054 262.312 37.2498 266.033 33.3993C269.758 29.5489 274.324 27.5986 279.609 27.5986C285.2 27.5986 289.666 29.6339 292.886 33.6394L293.791 34.7695V32.7143C293.791 30.434 295.646 28.5738 297.932 28.5738H300.537V62.288C300.537 64.6083 298.647 66.4985 296.326 66.4985H293.796V60.3077L292.891 61.4379C289.671 65.4484 285.205 67.4836 279.609 67.4836ZM280.439 34.1094C276.704 34.1094 273.529 35.4096 270.988 37.9699C268.448 40.5352 267.163 43.7507 267.163 47.5361C267.163 51.3216 268.448 54.537 270.988 57.1023C273.524 59.6676 276.704 60.9628 280.439 60.9628C284.225 60.9628 287.43 59.6626 289.966 57.1023C292.506 54.542 293.791 51.3216 293.791 47.5361C293.791 43.7557 292.506 40.5352 289.966 37.9699C287.43 35.4096 284.225 34.1094 280.439 34.1094Z" fill="#1B4642"/>
<path d="M306.674 66.4984V32.7742C306.674 30.4589 308.559 28.5737 310.874 28.5737H313.415V34.3844L314.345 33.0092C316.64 29.6138 320.261 27.8936 325.106 27.8936H325.191V34.9445L325.101 34.9394C324.861 34.9294 324.626 34.9244 324.391 34.9244C321.506 34.9244 318.975 35.7895 316.855 37.4898C314.57 39.325 313.415 42.3254 313.415 46.4059V62.2629C313.415 64.5982 311.514 66.4984 309.179 66.4984H306.674Z" fill="#1B4642"/>
<path d="M348.834 66.8486C345.524 66.8486 342.909 66.2586 341.063 65.0884C338.268 63.3232 337.023 60.0278 337.023 54.4121V34.0395H329.547V27.5237H337.023V23.0932C337.023 21.2679 338.243 19.6277 339.993 19.1027L343.764 17.9775V27.5237H353.805V34.0395H343.764V55.4672C343.764 57.2974 344.124 58.6126 344.834 59.3727C345.544 60.1328 346.654 60.5278 348.129 60.5528C348.434 60.5578 348.754 60.5629 349.094 60.5629C350.4 60.5629 351.955 60.5229 353.71 60.4428L353.8 60.4378V66.4936L353.725 66.5036C351.96 66.7336 350.315 66.8486 348.834 66.8486Z" fill="#1B4642"/>
<path d="M65.1583 65.1632H45.6258C28.6437 65.1632 14.832 51.3515 14.832 34.3694V14.8369H34.3645C51.3466 14.8369 65.1583 28.6487 65.1583 45.6308V65.1632ZM18.5074 18.5124V34.3694C18.5074 49.3212 30.6739 61.4877 45.6258 61.4877H61.4829V45.6308C61.4829 30.6789 49.3164 18.5124 34.3645 18.5124H18.5074Z" fill="#1B4642"/>
<path d="M79.9943 50.3263H60.4619C43.4797 50.3263 29.668 36.5146 29.668 19.5324V0H49.2004C66.1826 0 79.9943 13.8117 79.9943 30.7939V50.3263ZM33.3435 3.67545V19.5324C33.3435 34.4843 45.51 46.6508 60.4619 46.6508H76.3188V30.7939C76.3188 15.842 64.1523 3.67545 49.2004 3.67545H33.3435Z" fill="#1B4642"/>
<path d="M50.3264 80.0001H30.7939C13.8118 80.0001 0 66.1884 0 49.2063V29.6738H19.5325C36.5146 29.6738 50.3264 43.4856 50.3264 60.4677V80.0001ZM3.67551 33.3493V49.2063C3.67551 64.1581 15.842 76.3247 30.7939 76.3247H46.6509V60.4677C46.6509 45.5158 34.4843 33.3493 19.5325 33.3493H3.67551Z" fill="#1B4642"/>
</svg>
